<?xml version="1.0" encoding="UTF-8"?><svg id="a" xmlns="http://www.w3.org/2000/svg" xmlns:xlink="http://www.w3.org/1999/xlink" viewBox="0 0 75.86 119.55"><defs><linearGradient id="b" x1="-24.54" y1="126.38" x2="103.77" y2="-2.17" gradientUnits="userSpaceOnUse"><stop offset=".08" stop-color="#9945ff"/><stop offset=".3" stop-color="#8752f3"/><stop offset=".5" stop-color="#5497d5"/><stop offset=".6" stop-color="#43b4ca"/><stop offset=".72" stop-color="#28e0b9"/><stop offset=".97" stop-color="#19fb9b"/></linearGradient></defs><path d="M68.09,59.12c-.7,4.5,0,8.4.6,12.4,3,3.4,5.8,8.8,4.1,16.8-.7,3.3-6.7,21.6-20.2,27.7-4.79,2.16-10.74,3.57-16.9,3.53-7.8-.05-15.93-2.43-22.45-8.57-4.57-4.3-8.34-10.46-10.65-18.96C-1.41,77.52.39,73.72.49,61.12c0-6.38,3.92-11.15,8.87-11.04,2.03.05,4.24.91,6.43,2.84-.8-5,1.7-9.5,5.9-10.8.8-.25,1.59-.43,2.36-.51,2.89-.31,5.57.78,7.94,4.81,1-2.2-3.3-26.9-3.3-39.9,0-3.63,2.49-5.78,5.29-6.37,0,0,4.55.08,6.03,1.62.67.68,1.15,1.56,1.38,2.65,2,9.4,6.8,40.3,7.9,46,.17.79.56,1.17.97,1.26.07.02.15.02.24.03.03,0,.06,0,.09,0,.04,0,.07,0,.1-.01.45-.08.87-.42,1-.87,1.1-3.6,9.3-36.6,10.5-40.3,1.55-4.97,5.87-6.22,9.24-4.84,1.99.8,3.65,2.53,4.22,4.93.21.91.28,1.92.14,3.01-1.8,13.7-5.5,29.8-7.7,45.5Z" fill="url(#b)"/><path d="M68.09,59.12c-.7,4.5,0,8.4.6,12.4,3,3.4,5.8,8.8,4.1,16.8-.7,3.3-6.7,21.6-20.2,27.7-4.79,2.16-10.74,3.57-16.9,3.53-7.8-.05-15.93-2.43-22.45-8.57-4.57-4.3-8.34-10.46-10.65-18.96C-1.41,77.52.39,73.72.49,61.12c0-6.38,3.92-11.15,8.87-11.04,2.03.05,4.24.91,6.43,2.84-.8-5,1.7-9.5,5.9-10.8.8-.25,1.59-.43,2.36-.51,2.89-.31,5.57.78,7.94,4.81,1-2.2-3.3-26.9-3.3-39.9,0-3.63,2.49-5.78,5.29-6.37h.01c2.18-.44,4.54.08,6.02,1.62.67.68,1.15,1.56,1.38,2.65,2,9.4,6.8,40.3,7.9,46,.17.79.56,1.17.97,1.26.07.02.15.02.24.03.03,0,.06,0,.09,0,.04,0,.07,0,.1-.01.45-.08.87-.42,1-.87,1.1-3.6,9.3-36.6,10.5-40.3,1.55-4.97,5.87-6.22,9.24-4.84,1.99.8,3.65,2.53,4.22,4.93.21.91.28,1.92.14,3.01-1.8,13.7-5.5,29.8-7.7,45.5Z" fill="none"/><path d="M75.65,10.61c-.71.92-1.64,1.48-1.96.41,0-.03-.02-.07-.04-.1-1.45-4.49-7.47-3.76-8.76,1.1-.7,2.6-9.8,35.8-10.2,37.6-.3,1-1,2.3-4,2.1v-.03c.45-.08.87-.42,1-.87,1.1-3.6,9.3-36.6,10.5-40.3,1.55-4.97,5.87-6.22,9.24-4.84,1.99.8,3.65,2.53,4.22,4.93Z" fill="#661dd8"/><path d="M44.89,58.32c-1.9.8-8.4,2.8-8.5,3.4-2.2-6.9-4.2-13.5-5.8-15.5-1.01-1.25-2.29-2.02-3.65-2.34-4.69-1.11-10.3,3.16-8.97,11.57.1.63.24,1.29.42,1.97,0,.3-3-2-3.8-2.8-.25-.24-.49-.45-.74-.65-4.69-3.63-9.61.31-10.46,3.25-1.1,4-1,9.1-1,12.2-.1,8.3-1.5,7.7,2.2,21.7,2.2,8.42,7.08,17.87,17.43,23.33,3.78,2.01,8.29,3.47,13.67,4.17v.93c-7.8-.05-15.93-2.43-22.45-8.57-4.57-4.3-8.34-10.46-10.65-18.96C-1.41,77.52.39,73.72.49,61.12c0-6.38,3.92-11.15,8.87-11.04,2.03.05,4.24.91,6.43,2.84-.8-5,1.7-9.5,5.9-10.8.8-.25,1.59-.43,2.36-.51,2.89-.31,5.57.78,7.94,4.81,1-2.2-3.3-26.9-3.3-39.9,0-3.63,2.67-5.94,5.29-6.37,0,0,3,.7,4.5,3.31-4.35-3.19-7.57,1.83-7.39,3.86.9,12.8,3.1,33.3,3.2,34.3.28,3.88.12,15.21,9.03,16.56.49.08,1.02.13,1.57.14Z" fill="#661dd8"/><path d="M54.99,86.92c-1.4-.4-8.4-4.7-9.2-5.9-.9-1.2-1.7-1.3-3.6-.9-3.8,1-8.4,12-9.2,17-8.1-13.2-28.6-10.2-28.1-32.2,0-1.5,1.1-1.3,1.8.5,2.3,3.7,6.6,4.5,9.7,3.1,1.8-.8,3.5-1.8,3.4-4.4-.1-1.7.1-2.7,1.1-2.1,4.8,2.4,12.6-.4,12.8-5.7.8,2.6,1.4,4.7,1.7,6.1-4.4,2-6.8,2-9,4s-3.9,7-.5,10.5,0,0,0,0c1.7,1.8,4.2,2.4,4.5,2.5.4.1,1-.9-.1-1.5s-.8-1.6.1-1.7c5.9-.5,12.3-3.7,14.5-4.9,3.7-2,6.4.8,7.1,1.5s7.6,8.1,8.6,9.6c1.2,1.8-.6,5.9-5.6,4.5Z" fill="#661dd8"/><path d="M68.09,59.12c-.7,4.5,0,8.4.6,12.4,3,3.4,5.8,8.8,4.1,16.8-.7,3.3-6.7,21.6-20.2,27.7-4.79,2.16-10.74,3.57-16.9,3.53-7.8-.05-15.93-2.43-22.45-8.57-4.57-4.3-8.34-10.46-10.65-18.96C-1.41,77.52.39,73.72.49,61.12c0-6.38,3.92-11.15,8.87-11.04,2.03.05,4.24.91,6.43,2.84-.8-5,1.7-9.5,5.9-10.8.8-.25,1.59-.43,2.36-.51,2.89-.31,5.57.78,7.94,4.81,1-2.2-3.3-26.9-3.3-39.9,0-3.63,2.49-5.78,5.29-6.37h.01c2.18-.44,4.54.08,6.02,1.62.67.68,1.15,1.56,1.38,2.65,2,9.4,6.8,40.3,7.9,46,.17.79.56,1.17.97,1.26.07.02.15.02.24.03.03,0,.06,0,.09,0,.04,0,.07,0,.1-.01.45-.08.87-.42,1-.87,1.1-3.6,9.3-36.6,10.5-40.3,1.55-4.97,5.87-6.22,9.24-4.84,1.99.8,3.65,2.53,4.22,4.93.21.91.28,1.92.14,3.01-1.8,13.7-5.5,29.8-7.7,45.5Z" fill="none"/><path d="M68.09,59.12c-.7,4.5,0,8.4.6,12.4,3,3.4,5.8,8.8,4.1,16.8-.7,3.3-6.7,21.6-20.2,27.7-4.79,2.16-10.74,3.57-16.9,3.53-7.8-.05-15.93-2.43-22.45-8.57,3.04,1.43,5.96,2.58,8.78,3.47,11.87,3.76,21.83,2.92,30.17-1.33,3.5-2.1,6.2-4.5,8.39-6.99,2.19-2.49,3.86-5.06,5.31-7.51,4.9-8.6,5.4-16.7,2.7-21.4s-13.3-12.9-16.8-15.7c-1.9-1.6-5.2-1.6-7.9-.5-2.6.9-13.6,4.9-15.8,5.9-3.9,1.7-2.7,9.8,2,10.6,7.1,1.2,14.8.3,18-3.2.3-.3,1.1-.1.9.6-.5,2.3-3,3.8-3,3.8,1.8,1.9,3.5,3.6,5.1,4.7,2.9,1.9,5.2,1.6,5.7,1.5.7-.2,1.1.5.5,1-4.2,3.6-12.4-3-13.6-5.4-.2-.5-.9-.5-1.4-.1-.7.5-7.8,8.1-8.3,20.5,0,.3-.3.8-.7.1-2.7-5,2.7-17.9,4.2-19.9-6.1.3-11.2-.6-13.9-5.2-3.1,6.6-11.2,5.7-15.9-4.7-.1-.2-2.1-.2-4.3-3.3-.5-.7-.1-1.3.7-.6.9.7,1.7,1.1,2.4,1.3-.5-1.5-1-3.4-1-4.5s.6-.9,1,0c2.4,5.7,4.9,10.1,7.3,12,5,3.9,8.5-.3,8.2-3.8-.73-7.29-4.44-14.09-8.14-18.35-1.58-1.81-3.15-3.16-4.49-3.89,2.03.05,4.24.91,6.43,2.84.71.64,1.45,1.5,2.18,2.53,2.27,3.18,4.49,7.87,5.62,11.87.8-1.3,2.1-2.5,4-3.2,2.7-1,5-1.7,6.7-2.4-.61-5.74-3.33-13.58-7.35-17.84-.9-.96-1.86-1.74-2.89-2.27,2.89-.31,5.57.78,7.94,4.81,1.7,3.1,3.6,6.7,5,14.2,2.05-.97,4.19-1.88,6.33-2.44,4.02-1.07,8.05-.96,11.57,2.04,4.4,3.7,8.3,6.5,10.7,8.6-.6-6.2-.1-10.6,1.9-20.4,2.8-14.3,5.5-30.9,6.1-34.5.16-1.01.18-2.03.06-3-.23-2.09-1.06-3.98-2.22-5.24,1.99.8,3.65,2.53,4.22,4.93.21.91.28,1.92.14,3.01-1.8,13.7-5.5,29.8-7.7,45.5Z" fill="#3f078e"/><path d="M50.26,51.68c-2.27-.26-3.29-1.35-3.67-3.26-.4-2-6.8-40.9-7.1-42.4-.12-.65-.41-1.59-1-2.55h-.01c-.8-1.32-2.18-2.67-4.49-3.32,2.18-.44,4.54.08,6.02,1.62.67.68,1.15,1.56,1.38,2.65,2,9.4,6.8,40.3,7.9,46,.17.79.56,1.17.97,1.26Z" fill="#3f078e"/><path d="M50.59,51.7v.02s-.06-.01-.09-.01c.03,0,.06,0,.09,0Z" fill="#b26830"/></svg>