<?xml version="1.0" encoding="UTF-8"?><svg id="Layer_2" xmlns="http://www.w3.org/2000/svg" xmlns:xlink="http://www.w3.org/1999/xlink" viewBox="0 0 1017.92 564.73"><defs><style>.cls-1{stroke-width:23.31px;}.cls-1,.cls-2,.cls-3{font-size:474.46px;}.cls-1,.cls-2,.cls-3,.cls-4,.cls-5,.cls-6{font-family:RocknRollOne-Regular, 'RocknRoll One';}.cls-1,.cls-2,.cls-6{fill:none;}.cls-1,.cls-6{stroke:#000;stroke-miterlimit:10;}.cls-7{fill:url(#New_Gradient_Swatch);}.cls-2{stroke:#fff;stroke-linejoin:round;stroke-width:46.61px;}.cls-3,.cls-4{fill:#ff0;}.cls-4,.cls-5,.cls-6{font-size:263.98px;}.cls-5{fill:#fff;}.cls-6{stroke-width:12.97px;}</style><linearGradient id="New_Gradient_Swatch" x1="260.54" y1="72.65" x2="260.54" y2="471.2" gradientUnits="userSpaceOnUse"><stop offset="0" stop-color="#73f857"/><stop offset="1" stop-color="#25d6d9"/></linearGradient></defs><g id="Layer_1-2"><text class="cls-3" transform="translate(23.31 440.83)"><tspan x="0" y="0">四</tspan></text><text class="cls-2" transform="translate(23.31 440.83)"><tspan x="0" y="0">四</tspan></text><text class="cls-1" transform="translate(23.31 440.83)"><tspan x="0" y="0">四</tspan></text><path class="cls-7" d="M393.39,471.2v-37.01H127.69v29.89l-51.24,7.12-8.54-398.55h59.78v20.88l325.48-20.88-8.54,391.43-51.24,7.12ZM393.39,326.96c-8.86.64-19.06,1.27-30.6,1.9-11.55.64-23.01.95-34.4.95-15.18,0-26.57-3-34.16-9.01-7.59-6-11.39-16.61-11.39-31.79v-157.05h-41.75c-.64,35.11-3.88,65.88-9.73,92.28-5.86,26.41-14.55,50.29-26.1,71.64-11.55,21.35-26.5,42.31-44.84,62.87l-25.15-18.5c9.8-17.08,17.87-32.97,24.2-47.68,6.32-14.71,11.22-29.73,14.71-45.07,3.48-15.34,6-32.26,7.59-50.77,1.58-18.5,2.37-40.09,2.37-64.76h-56.46v261.43l265.7-16.61v-49.82ZM393.39,131.96h-54.09l-8.07,134.75v2.85c0,10.13,5.06,15.18,15.18,15.18h2.37c7.27-.63,14.78-1.58,22.54-2.85,7.75-1.26,15.1-2.53,22.06-3.8v-146.13Z"/><text class="cls-4" transform="translate(482.42 491.79)"><tspan x="0" y="0">.fun</tspan></text><text class="cls-6" transform="translate(482.42 491.79)"><tspan x="0" y="0">.fun</tspan></text><text class="cls-5" transform="translate(482.42 491.79)"><tspan x="0" y="0">.fun</tspan></text></g></svg>